<?xml version="1.0" standalone="no"?>
<!DOCTYPE svg PUBLIC "-//W3C//DTD SVG 20010904//EN"
 "http://www.w3.org/TR/2001/REC-SVG-20010904/DTD/svg10.dtd">
<svg version="1.0" xmlns="http://www.w3.org/2000/svg"
 width="369.000000pt" height="369.000000pt" viewBox="0 0 369.000000 369.000000"
 preserveAspectRatio="xMidYMid meet">
<metadata>
Created by potrace 1.11, written by Peter Selinger 2001-2013
</metadata>
<g transform="translate(0.000000,369.000000) scale(0.100000,-0.100000)"
fill="#000000" stroke="none">
<path d="M0 1845 l0 -1845 1845 0 1845 0 0 1845 0 1845 -1845 0 -1845 0 0
-1845z m2304 1042 c131 -33 223 -102 274 -207 24 -48 27 -69 31 -171 2 -88 -1
-131 -14 -175 -49 -171 -169 -298 -362 -386 -43 -19 -61 -33 -56 -41 118 -196
481 -752 550 -844 64 -86 89 -105 147 -113 l41 -5 0 -55 0 -55 -278 -1 -278 0
-14 33 c-20 47 -350 601 -468 783 -55 85 -119 175 -142 200 -36 37 -42 49 -34
68 7 19 16 22 61 22 66 0 176 23 218 45 53 28 117 102 156 181 34 68 38 84 42
178 11 249 -92 372 -335 399 -66 7 -123 7 -169 1 l-69 -9 -6 -105 c-10 -169
-9 -1353 1 -1494 12 -164 13 -165 141 -177 51 -5 97 -13 101 -17 5 -5 8 -31 6
-58 l-3 -48 -465 0 -465 0 -3 49 c-2 26 1 52 6 57 4 4 51 12 102 17 116 11
125 19 137 129 11 100 11 1464 0 1564 -12 110 -21 118 -136 129 -50 5 -96 11
-101 14 -10 6 -14 97 -6 106 2 2 301 4 663 4 594 0 665 -2 727 -18z"/>
</g>
</svg>
